Coordinates
version=1
nRows=58
nColumns=6
inDegrees=yes

Units are S.I. units (second, meters, Newtons, ...)
If the header above contains a line with 'inDegrees', this indicates whether rotational values are in degrees (yes) or radians (no).

endheader
time	foot_tx	hip_flexion_r	knee_angle_r	ankle_angle_r	lumbar
     61.50000000	      0.25325009	     68.27778770	    -71.93057952	      0.25037669	     -8.23406297
     61.51000000	      0.25325182	     68.28084409	    -71.92216719	      0.23971642	     -8.24674676
     61.52000000	      0.25324123	     68.25071254	    -71.91732330	      0.23463704	     -8.29960266
     61.53000000	      0.25324556	     68.25317565	    -71.90970412	      0.22460202	     -8.31165088
     61.54000000	      0.25325693	     68.24369547	    -71.90081932	      0.21442868	     -8.33700013
     61.55000000	      0.25323529	     68.21209685	    -71.90114017	      0.21369693	     -8.38790491
     61.56000000	      0.25322072	     68.21603967	    -71.90110859	      0.20973276	     -8.39326375
     61.57000000	      0.25322856	     68.18883773	    -71.89519410	      0.20395454	     -8.43290608
     61.58000000	      0.25322236	     68.19033068	    -71.89507009	      0.20044807	     -8.43624676
     61.59000000	      0.25323630	     68.18200734	    -71.88927777	      0.19393064	     -8.44622081
     61.60000000	      0.25323641	     68.18114019	    -71.89093391	      0.19216636	     -8.44614724
     61.61000000	      0.25322233	     68.15331062	    -71.89679016	      0.19663714	     -8.47465576
     61.62000000	      0.25323878	     68.14904623	    -71.89703693	      0.19438688	     -8.47193619
     61.63000000	      0.25325248	     68.14331821	    -71.89837863	      0.19340080	     -8.46819247
     61.64000000	      0.25326511	     68.13609629	    -71.90146662	      0.19417503	     -8.46326474
     61.65000000	      0.25326093	     68.12758174	    -71.90965256	      0.19942294	     -8.45769273
     61.66000000	      0.25326630	     68.11870725	    -71.91575396	      0.20310281	     -8.45069929
     61.67000000	      0.25327064	     68.10964520	    -71.92243007	      0.20740408	     -8.44266823
     61.68000000	      0.25327484	     68.10066105	    -71.92890982	      0.21171570	     -8.43401901
     61.69000000	      0.25327748	     68.09228892	    -71.93579445	      0.21621935	     -8.42501401
     61.70000000	      0.25328102	     68.08424889	    -71.94095594	      0.21974281	     -8.41595377
     61.71000000	      0.25328393	     68.07690924	    -71.94532342	      0.22265117	     -8.40709186
     61.72000000	      0.25328550	     68.07038512	    -71.94867481	      0.22482279	     -8.39844246
     61.73000000	      0.25329354	     68.06363996	    -71.94975922	      0.22502905	     -8.39150589
     61.74000000	      0.25329317	     68.05749097	    -71.95075731	      0.22546595	     -8.38478226
     61.75000000	      0.25328919	     68.05192919	    -71.95136820	      0.22564412	     -8.37833514
     61.76000000	      0.25328321	     68.04684869	    -71.95144061	      0.22542287	     -8.37206137
     61.77000000	      0.25327608	     68.04238618	    -71.95069243	      0.22480693	     -8.36533841
     61.78000000	      0.25327070	     68.03812452	    -71.94941263	      0.22345454	     -8.35863280
     61.79000000	      0.25327268	     68.05857692	    -71.94657501	      0.21824041	     -8.32306320
     61.80000000	      0.25326377	     68.05274995	    -71.94528389	      0.21703660	     -8.31794567
     61.81000000	      0.25325882	     68.04700599	    -71.94343479	      0.21533289	     -8.31249260
     61.82000000	      0.25325484	     68.04122226	    -71.94175153	      0.21348062	     -8.30677643
     61.83000000	      0.25325173	     68.03525233	    -71.94035325	      0.21177786	     -8.30071743
     61.84000000	      0.25324954	     68.02894109	    -71.93937678	      0.21039956	     -8.29419193
     61.85000000	      0.25324874	     68.02206046	    -71.93902994	      0.20940668	     -8.28713890
     61.86000000	      0.25324780	     68.01482122	    -71.93906431	      0.20915723	     -8.27915708
     61.87000000	      0.25324427	     68.02727857	    -71.94122234	      0.20899194	     -8.24567616
     61.88000000	      0.25324682	     68.01789754	    -71.94167675	      0.20968330	     -8.23688664
     61.89000000	      0.25324814	     68.00851572	    -71.94274841	      0.21125261	     -8.22632753
     61.90000000	      0.25324473	     68.02956009	    -71.94707386	      0.21287451	     -8.17713696
     61.91000000	      0.25323799	     68.02498792	    -71.95112687	      0.21734935	     -8.15687721
     61.92000000	      0.25325481	     68.01323029	    -71.94977079	      0.21818763	     -8.14371237
     61.93000000	      0.25324823	     68.04829402	    -71.95490174	      0.22115372	     -8.07083888
     61.94000000	      0.25326545	     68.03424071	    -71.95306039	      0.22304032	     -8.05613845
     61.95000000	      0.25326349	     68.06607797	    -71.95833134	      0.22699102	     -7.98341568
     61.96000000	      0.25327908	     68.05051363	    -71.95705284	      0.23026814	     -7.96710601
     61.97000000	      0.25327649	     68.08712981	    -71.96302979	      0.23484414	     -7.88637194
     61.98000000	      0.25328114	     68.09808744	    -71.96745317	      0.24038438	     -7.83633136
     61.99000000	      0.25327315	     68.08940852	    -71.97562126	      0.25050166	     -7.81013277
     62.00000000	      0.25329030	     68.11839689	    -71.97778685	      0.25266761	     -7.73779650
     62.01000000	      0.25329147	     68.12929684	    -71.98565256	      0.26016833	     -7.68980745
     62.02000000	      0.25330393	     68.13734293	    -71.99111443	      0.26611156	     -7.64402668
     62.03000000	      0.25330023	     68.12809465	    -72.00106008	      0.27674836	     -7.62092344
     62.04000000	      0.25331152	     68.15587719	    -72.00772445	      0.28126930	     -7.55429578
     62.05000000	      0.25330840	     68.14599486	    -72.01775688	      0.29154523	     -7.53461970
     62.06000000	      0.25331979	     68.17144515	    -72.02567695	      0.29634692	     -7.47408756
     62.07000000	      0.25331411	     68.16234291	    -72.03591563	      0.30597231	     -7.45777839
